<?xml version="1.0" standalone="no"?>
<!DOCTYPE svg PUBLIC "-//W3C//DTD SVG 20010904//EN"
 "http://www.w3.org/TR/2001/REC-SVG-20010904/DTD/svg10.dtd">
<svg version="1.0" xmlns="http://www.w3.org/2000/svg"
 width="400.000000pt" height="400.000000pt" viewBox="0 0 400.000000 400.000000"
 preserveAspectRatio="xMidYMid meet">
<metadata>
Created by potrace 1.11, written by Peter Selinger 2001-2013
</metadata>
<g transform="translate(0.000000,400.000000) scale(0.100000,-0.100000)"
fill="#000000" stroke="none">
<path d="M1655 3554 c-187 -152 -349 -283 -360 -292 -20 -17 -248 -202 -524
-425 -80 -66 -155 -126 -166 -136 -11 -9 -64 -51 -117 -94 -98 -78 -110 -95
-85 -115 15 -13 50 15 602 466 11 10 90 73 175 142 85 68 157 127 160 130 3 3
59 49 125 102 66 53 212 171 325 262 112 91 207 166 210 166 4 0 321 -252 375
-298 11 -10 103 -85 205 -167 102 -82 196 -159 210 -171 14 -12 77 -64 141
-115 64 -52 196 -159 294 -239 345 -280 358 -290 372 -278 22 18 15 35 -29 70
-38 29 -200 161 -313 254 -22 18 -179 146 -350 284 -170 138 -400 324 -510
414 -289 236 -389 316 -395 316 -3 0 -158 -124 -345 -276z"/>
<path d="M1518 2898 c-13 -13 -18 -34 -18 -72 l0 -53 500 0 500 0 0 52 c0 97
38 90 -496 90 -436 0 -470 -1 -486 -17z"/>
<path d="M1500 2390 c0 -324 1 -348 18 -352 15 -4 936 -4 970 0 9 2 12 79 12
350 l0 349 -500 0 -500 0 0 -347z m375 115 c36 -35 65 -67 65 -71 0 -13 -131
-134 -145 -134 -27 0 -16 20 41 76 62 62 62 53 -8 129 -37 39 -48 65 -28 65 6
0 39 -29 75 -65z m354 -181 c11 -3 11 -8 3 -16 -15 -15 -270 -14 -285 1 -13
13 3 19 63 23 57 4 201 -1 219 -8z"/>
<path d="M1350 1594 l0 -144 60 0 c32 0 70 5 83 11 74 34 82 201 12 259 -9 8
-46 15 -86 16 l-69 3 0 -145z m107 97 c28 -1 41 -25 46 -83 6 -67 -13 -105
-58 -114 -20 -3 -38 -4 -41 -1 -3 3 -6 41 -6 84 0 120 0 122 20 118 9 -2 27
-4 39 -4z"/>
<path d="M2218 1715 c-6 -30 -2 -35 33 -35 22 0 27 4 24 20 -6 30 -14 40 -34
40 -12 0 -20 -9 -23 -25z"/>
<path d="M2710 1719 c0 -17 11 -24 33 -20 4 0 7 -11 8 -26 1 -28 1 -148 0
-170 -1 -7 -10 -13 -21 -13 -13 0 -20 -7 -20 -20 0 -18 7 -20 70 -20 63 0 70
2 70 20 0 14 -7 20 -23 20 -23 0 -23 1 -23 122 l0 123 -47 2 c-40 1 -47 -1
-47 -18z"/>
<path d="M1108 1643 c-27 -17 -35 -44 -22 -77 3 -9 37 -25 77 -37 61 -18 69
-23 54 -34 -16 -12 -80 -7 -118 9 -26 11 -32 -32 -6 -45 35 -19 132 -16 155 4
48 44 21 99 -54 111 -22 4 -46 11 -54 16 -35 23 44 36 91 16 11 -5 19 -1 23
10 10 26 -5 35 -65 40 -41 4 -61 0 -81 -13z"/>
<path d="M1643 1648 c-25 -12 -27 -17 -15 -36 6 -9 16 -10 33 -4 13 4 31 8 39
7 8 -1 23 -3 33 -3 9 -1 17 -8 17 -16 0 -9 -17 -15 -51 -18 -59 -6 -91 -32
-91 -73 0 -40 24 -59 74 -57 24 1 58 2 77 2 43 0 48 8 45 73 -6 91 -13 113
-40 125 -31 15 -91 14 -121 0z m107 -122 c0 -30 -59 -51 -86 -32 -15 12 -15
14 1 29 20 21 85 23 85 3z"/>
<path d="M1892 1641 c-4 -11 -7 -57 -6 -103 0 -80 1 -83 25 -86 22 -3 24 1 25
35 3 107 6 116 39 126 37 12 46 -5 48 -87 1 -76 2 -77 26 -74 27 3 25 -4 22
121 -1 33 -7 53 -21 67 -24 24 -72 26 -94 4 -15 -14 -17 -14 -32 0 -20 20 -23
20 -32 -3z"/>
<path d="M2176 1637 c-3 -12 3 -19 20 -23 22 -6 24 -11 24 -65 0 -51 -2 -59
-19 -59 -23 0 -36 -29 -17 -36 7 -3 40 -4 72 -2 47 2 59 7 62 21 3 12 -3 17
-22 17 -26 0 -26 1 -26 80 0 44 -3 80 -7 81 -51 7 -82 2 -87 -14z"/>
<path d="M2447 1640 c-58 -46 -53 -147 9 -181 42 -22 144 -14 144 11 0 33 -11
38 -46 24 -30 -13 -38 -13 -64 1 -17 9 -30 22 -30 30 0 11 16 13 80 11 45 -2
82 0 84 3 9 16 -18 72 -45 95 -38 32 -95 35 -132 6z m104 -40 l24 -19 -25 -2
c-32 -3 -84 2 -89 7 -7 7 33 33 50 34 9 0 27 -9 40 -20z"/>
<path d="M400 1515 c-6 -8 -10 -19 -8 -24 1 -5 66 -60 143 -122 77 -62 204
-165 281 -229 300 -245 708 -576 739 -600 37 -29 228 -182 235 -190 3 -3 51
-42 107 -87 l101 -83 54 42 c73 58 792 641 798 648 3 3 36 30 75 60 76 60 79
62 175 142 67 56 281 229 428 347 45 36 82 71 82 77 0 61 -90 -7 -1114 -846
-51 -41 -110 -89 -132 -107 -21 -17 -52 -43 -69 -56 -25 -21 -132 -108 -185
-150 -8 -7 -36 -29 -63 -51 -48 -39 -54 -39 -87 -6 -3 3 -50 41 -105 86 -132
106 -699 567 -750 608 -22 18 -67 55 -100 82 -116 93 -220 178 -250 203 -17
14 -51 42 -75 61 -24 19 -92 74 -152 123 -59 48 -109 87 -111 87 -3 0 -10 -7
-17 -15z"/>
</g>
</svg>
